<?xml version="1.0" encoding="utf-8" standalone="no"?>
<!DOCTYPE svg PUBLIC "-//W3C//DTD SVG 1.1//EN"
  "http://www.w3.org/Graphics/SVG/1.1/DTD/svg11.dtd">
<svg xmlns:xlink="http://www.w3.org/1999/xlink" width="720pt" height="360pt" viewBox="0 0 720 360" xmlns="http://www.w3.org/2000/svg" version="1.1">
 <metadata>
  <rdf:RDF xmlns:dc="http://purl.org/dc/elements/1.1/" xmlns:cc="http://creativecommons.org/ns#" xmlns:rdf="http://www.w3.org/1999/02/22-rdf-syntax-ns#">
   <cc:Work>
    <dc:type rdf:resource="http://purl.org/dc/dcmitype/StillImage"/>
    <dc:date>2024-06-18T03:03:09.371870</dc:date>
    <dc:format>image/svg+xml</dc:format>
    <dc:creator>
     <cc:Agent>
      <dc:title>Matplotlib v3.9.0, https://matplotlib.org/</dc:title>
     </cc:Agent>
    </dc:creator>
   </cc:Work>
  </rdf:RDF>
 </metadata>
 <defs>
  <style type="text/css">*{stroke-linejoin: round; stroke-linecap: butt}</style>
 </defs>
 <g id="figure_1">
  <g id="patch_1">
   <path d="M 0 360 
L 720 360 
L 720 0 
L 0 0 
z
" style="fill: #ffffff"/>
  </g>
  <g id="axes_1">
   <g id="patch_2">
    <path d="M 90 320.4 
L 648 320.4 
L 648 43.2 
L 90 43.2 
z
" style="fill: #ffffff"/>
   </g>
   <g id="patch_3">
    <path d="M 115.363636 320.4 
L 128.981696 320.4 
L 128.981696 56.4 
L 115.363636 56.4 
z
" clip-path="url(#pe0184a8044)" style="fill: #808080"/>
   </g>
   <g id="patch_4">
    <path d="M 132.386211 320.4 
L 146.004271 320.4 
L 146.004271 151.353577 
L 132.386211 151.353577 
z
" clip-path="url(#pe0184a8044)" style="fill: #808080"/>
   </g>
   <g id="patch_5">
    <path d="M 149.408786 320.4 
L 163.026846 320.4 
L 163.026846 162.081953 
L 149.408786 162.081953 
z
" clip-path="url(#pe0184a8044)" style="fill: #808080"/>
   </g>
   <g id="patch_6">
    <path d="M 166.431361 320.4 
L 180.04942 320.4 
L 180.04942 191.733992 
L 166.431361 191.733992 
z
" clip-path="url(#pe0184a8044)" style="fill: #808080"/>
   </g>
   <g id="patch_7">
    <path d="M 183.453935 320.4 
L 197.071995 320.4 
L 197.071995 200.227289 
L 183.453935 200.227289 
z
" clip-path="url(#pe0184a8044)" style="fill: #808080"/>
   </g>
   <g id="patch_8">
    <path d="M 200.47651 320.4 
L 214.09457 320.4 
L 214.09457 207.156032 
L 200.47651 207.156032 
z
" clip-path="url(#pe0184a8044)" style="fill: #808080"/>
   </g>
   <g id="patch_9">
    <path d="M 217.499085 320.4 
L 231.117145 320.4 
L 231.117145 211.998702 
L 217.499085 211.998702 
z
" clip-path="url(#pe0184a8044)" style="fill: #808080"/>
   </g>
   <g id="patch_10">
    <path d="M 234.52166 320.4 
L 248.139719 320.4 
L 248.139719 224.068125 
L 234.52166 224.068125 
z
" clip-path="url(#pe0184a8044)" style="fill: #808080"/>
   </g>
   <g id="patch_11">
    <path d="M 251.544234 320.4 
L 265.162294 320.4 
L 265.162294 228.20302 
L 251.544234 228.20302 
z
" clip-path="url(#pe0184a8044)" style="fill: #808080"/>
   </g>
   <g id="patch_12">
    <path d="M 268.566809 320.4 
L 282.184869 320.4 
L 282.184869 230.400847 
L 268.566809 230.400847 
z
" clip-path="url(#pe0184a8044)" style="fill: #808080"/>
   </g>
   <g id="patch_13">
    <path d="M 285.589384 320.4 
L 299.207444 320.4 
L 299.207444 235.541527 
L 285.589384 235.541527 
z
" clip-path="url(#pe0184a8044)" style="fill: #808080"/>
   </g>
   <g id="patch_14">
    <path d="M 302.611959 320.4 
L 316.230018 320.4 
L 316.230018 235.91404 
L 302.611959 235.91404 
z
" clip-path="url(#pe0184a8044)" style="fill: #808080"/>
   </g>
   <g id="patch_15">
    <path d="M 319.634533 320.4 
L 333.252593 320.4 
L 333.252593 237.813856 
L 319.634533 237.813856 
z
" clip-path="url(#pe0184a8044)" style="fill: #808080"/>
   </g>
   <g id="patch_16">
    <path d="M 336.657108 320.4 
L 350.275168 320.4 
L 350.275168 244.221081 
L 336.657108 244.221081 
z
" clip-path="url(#pe0184a8044)" style="fill: #808080"/>
   </g>
   <g id="patch_17">
    <path d="M 353.679683 320.4 
L 367.297743 320.4 
L 367.297743 251.559588 
L 353.679683 251.559588 
z
" clip-path="url(#pe0184a8044)" style="fill: #808080"/>
   </g>
   <g id="patch_18">
    <path d="M 370.702257 320.4 
L 384.320317 320.4 
L 384.320317 252.490871 
L 370.702257 252.490871 
z
" clip-path="url(#pe0184a8044)" style="fill: #808080"/>
   </g>
   <g id="patch_19">
    <path d="M 387.724832 320.4 
L 401.342892 320.4 
L 401.342892 254.576944 
L 387.724832 254.576944 
z
" clip-path="url(#pe0184a8044)" style="fill: #808080"/>
   </g>
   <g id="patch_20">
    <path d="M 404.747407 320.4 
L 418.365467 320.4 
L 418.365467 259.829378 
L 404.747407 259.829378 
z
" clip-path="url(#pe0184a8044)" style="fill: #808080"/>
   </g>
   <g id="patch_21">
    <path d="M 421.769982 320.4 
L 435.388041 320.4 
L 435.388041 260.350896 
L 421.769982 260.350896 
z
" clip-path="url(#pe0184a8044)" style="fill: #808080"/>
   </g>
   <g id="patch_22">
    <path d="M 438.792556 320.4 
L 452.410616 320.4 
L 452.410616 261.915451 
L 438.792556 261.915451 
z
" clip-path="url(#pe0184a8044)" style="fill: #808080"/>
   </g>
   <g id="patch_23">
    <path d="M 455.815131 320.4 
L 469.433191 320.4 
L 469.433191 263.181995 
L 455.815131 263.181995 
z
" clip-path="url(#pe0184a8044)" style="fill: #808080"/>
   </g>
   <g id="patch_24">
    <path d="M 472.837706 320.4 
L 486.455766 320.4 
L 486.455766 263.480006 
L 472.837706 263.480006 
z
" clip-path="url(#pe0184a8044)" style="fill: #808080"/>
   </g>
   <g id="patch_25">
    <path d="M 489.860281 320.4 
L 503.47834 320.4 
L 503.47834 263.964273 
L 489.860281 263.964273 
z
" clip-path="url(#pe0184a8044)" style="fill: #808080"/>
   </g>
   <g id="patch_26">
    <path d="M 506.882855 320.4 
L 520.500915 320.4 
L 520.500915 265.975843 
L 506.882855 265.975843 
z
" clip-path="url(#pe0184a8044)" style="fill: #808080"/>
   </g>
   <g id="patch_27">
    <path d="M 523.90543 320.4 
L 537.52349 320.4 
L 537.52349 273.01634 
L 523.90543 273.01634 
z
" clip-path="url(#pe0184a8044)" style="fill: #808080"/>
   </g>
   <g id="patch_28">
    <path d="M 540.928005 320.4 
L 554.546065 320.4 
L 554.546065 275.02791 
L 540.928005 275.02791 
z
" clip-path="url(#pe0184a8044)" style="fill: #808080"/>
   </g>
   <g id="patch_29">
    <path d="M 557.95058 320.4 
L 571.568639 320.4 
L 571.568639 276.44346 
L 557.95058 276.44346 
z
" clip-path="url(#pe0184a8044)" style="fill: #808080"/>
   </g>
   <g id="patch_30">
    <path d="M 574.973154 320.4 
L 588.591214 320.4 
L 588.591214 278.194271 
L 574.973154 278.194271 
z
" clip-path="url(#pe0184a8044)" style="fill: #808080"/>
   </g>
   <g id="patch_31">
    <path d="M 591.995729 320.4 
L 605.613789 320.4 
L 605.613789 279.200056 
L 591.995729 279.200056 
z
" clip-path="url(#pe0184a8044)" style="fill: #808080"/>
   </g>
   <g id="patch_32">
    <path d="M 609.018304 320.4 
L 622.636364 320.4 
L 622.636364 285.085763 
L 609.018304 285.085763 
z
" clip-path="url(#pe0184a8044)" style="fill: #808080"/>
   </g>
   <g id="matplotlib.axis_1">
    <g id="xtick_1">
     <g id="line2d_1">
      <defs>
       <path id="m4b93be4df4" d="M 0 0 
L 0 3.5 
" style="stroke: #000000; stroke-width: 0.8"/>
      </defs>
      <g>
       <use xlink:href="#m4b93be4df4" x="122.172666" y="320.4" style="stroke: #000000; stroke-width: 0.8"/>
      </g>
     </g>
     <g id="text_1">
      <!-- 、 -->
      <g transform="translate(124.73751 337.4) rotate(-90) scale(0.1 -0.1)">
       <defs>
        <path id="LINESeedJP_OTF-Regular-3001" d="M 2048 -122 
C 2086 -90 2093 -51 2061 -13 
C 1734 410 1261 832 826 1152 
C 787 1184 749 1178 717 1146 
L 512 928 
C 474 890 480 851 518 819 
C 922 512 1389 58 1658 -339 
C 1690 -384 1728 -390 1766 -358 
L 2048 -122 
z
" transform="scale(0.015625)"/>
       </defs>
       <use xlink:href="#LINESeedJP_OTF-Regular-3001"/>
      </g>
     </g>
    </g>
    <g id="xtick_2">
     <g id="line2d_2">
      <g>
       <use xlink:href="#m4b93be4df4" x="139.195241" y="320.4" style="stroke: #000000; stroke-width: 0.8"/>
      </g>
     </g>
     <g id="text_2">
      <!-- い -->
      <g transform="translate(141.760085 337.4) rotate(-90) scale(0.1 -0.1)">
       <defs>
        <path id="LINESeedJP_OTF-Regular-3044" d="M 1293 512 
C 1498 230 1773 64 2067 64 
C 2490 64 2938 410 3226 1229 
C 3251 1299 3245 1344 3213 1376 
L 2970 1626 
C 2931 1664 2886 1651 2867 1587 
C 2643 845 2330 582 2061 582 
C 1933 582 1811 646 1722 742 
C 1114 1402 1158 3277 1280 4538 
C 1286 4589 1267 4614 1216 4621 
L 832 4666 
C 781 4666 749 4646 749 4595 
C 691 3187 627 1338 1293 512 
z
M 5824 966 
C 5869 979 5894 1005 5894 1056 
C 5875 2362 5382 3629 4435 4461 
C 4403 4493 4365 4493 4326 4467 
L 4045 4282 
C 4000 4250 4000 4211 4045 4173 
C 4960 3379 5363 2157 5389 960 
C 5389 902 5421 883 5472 890 
L 5824 966 
z
" transform="scale(0.015625)"/>
       </defs>
       <use xlink:href="#LINESeedJP_OTF-Regular-3044"/>
      </g>
     </g>
    </g>
    <g id="xtick_3">
     <g id="line2d_3">
      <g>
       <use xlink:href="#m4b93be4df4" x="156.217816" y="320.4" style="stroke: #000000; stroke-width: 0.8"/>
      </g>
     </g>
     <g id="text_3">
      <!-- の -->
      <g transform="translate(158.782659 337.4) rotate(-90) scale(0.1 -0.1)">
       <defs>
        <path id="LINESeedJP_OTF-Regular-306e" d="M 3264 -96 
C 3277 -134 3309 -154 3354 -147 
C 5197 -32 6234 1357 5811 2899 
C 5498 4038 4410 4659 3302 4659 
C 2688 4659 2061 4467 1562 4064 
C 326 3078 173 1434 1030 595 
C 1267 365 1549 250 1824 250 
C 2125 250 2413 390 2605 678 
C 3226 1626 3616 3168 3571 4211 
C 4384 4115 5114 3610 5331 2784 
C 5645 1613 4960 416 3181 333 
C 3123 333 3098 294 3123 243 
L 3264 -96 
z
M 3072 4211 
C 3136 3290 2752 1754 2234 1005 
C 2118 832 1965 755 1805 755 
C 1658 755 1504 819 1370 947 
C 640 1664 941 2989 1837 3712 
C 2208 4006 2637 4173 3072 4211 
z
" transform="scale(0.015625)"/>
       </defs>
       <use xlink:href="#LINESeedJP_OTF-Regular-306e"/>
      </g>
     </g>
    </g>
    <g id="xtick_4">
     <g id="line2d_4">
      <g>
       <use xlink:href="#m4b93be4df4" x="173.24039" y="320.4" style="stroke: #000000; stroke-width: 0.8"/>
      </g>
     </g>
     <g id="text_4">
      <!-- 。 -->
      <g transform="translate(175.805234 337.4) rotate(-90) scale(0.1 -0.1)">
       <defs>
        <path id="LINESeedJP_OTF-Regular-3002" d="M 1357 -416 
C 1882 -416 2291 0 2291 525 
C 2291 1037 1875 1459 1357 1459 
C 832 1459 422 1030 422 525 
C 422 0 838 -416 1357 -416 
z
M 1350 -58 
C 1043 -58 781 211 781 525 
C 781 838 1043 1094 1350 1094 
C 1677 1094 1939 838 1939 525 
C 1939 205 1677 -58 1350 -58 
z
" transform="scale(0.015625)"/>
       </defs>
       <use xlink:href="#LINESeedJP_OTF-Regular-3002"/>
      </g>
     </g>
    </g>
    <g id="xtick_5">
     <g id="line2d_5">
      <g>
       <use xlink:href="#m4b93be4df4" x="190.262965" y="320.4" style="stroke: #000000; stroke-width: 0.8"/>
      </g>
     </g>
     <g id="text_5">
      <!-- て -->
      <g transform="translate(192.827809 337.4) rotate(-90) scale(0.1 -0.1)">
       <defs>
        <path id="LINESeedJP_OTF-Regular-3066" d="M 4909 352 
C 4915 403 4890 435 4838 435 
C 1830 512 1971 2778 4058 3834 
C 4525 4070 4992 4154 5555 4128 
C 5606 4128 5632 4154 5632 4205 
L 5632 4538 
C 5632 4589 5606 4614 5562 4614 
C 4211 4595 1952 4582 653 4589 
C 602 4589 576 4557 576 4512 
L 582 4166 
C 582 4115 608 4090 659 4090 
C 1510 4109 2822 4128 3853 4154 
C 3699 4102 3558 4038 3418 3955 
C 1376 2752 1357 58 4749 -70 
C 4800 -77 4832 -51 4838 -6 
L 4909 352 
z
" transform="scale(0.015625)"/>
       </defs>
       <use xlink:href="#LINESeedJP_OTF-Regular-3066"/>
      </g>
     </g>
    </g>
    <g id="xtick_6">
     <g id="line2d_6">
      <g>
       <use xlink:href="#m4b93be4df4" x="207.28554" y="320.4" style="stroke: #000000; stroke-width: 0.8"/>
      </g>
     </g>
     <g id="text_6">
      <!-- た -->
      <g transform="translate(209.850384 337.4) rotate(-90) scale(0.1 -0.1)">
       <defs>
        <path id="LINESeedJP_OTF-Regular-305f" d="M 710 3904 
C 710 3853 742 3827 787 3827 
C 1190 3827 1568 3827 1939 3834 
C 1683 2643 1267 1331 762 45 
C 742 -6 755 -45 806 -58 
L 1171 -147 
C 1216 -160 1248 -141 1267 -96 
C 1747 1229 2150 2573 2419 3834 
C 2880 3834 3334 3834 3827 3834 
C 3878 3834 3904 3859 3904 3910 
L 3904 4198 
C 3904 4250 3878 4275 3827 4275 
C 3366 4275 2931 4275 2496 4275 
C 2554 4538 2598 4800 2637 5056 
C 2643 5107 2618 5139 2566 5139 
L 2234 5158 
C 2182 5158 2157 5139 2150 5088 
C 2118 4826 2074 4557 2022 4275 
C 1626 4275 1222 4275 787 4275 
C 742 4275 710 4250 710 4198 
L 710 3904 
z
M 5690 3078 
C 5696 3123 5677 3155 5626 3162 
C 5274 3226 4877 3258 4454 3258 
C 4045 3258 3622 3226 3194 3174 
C 3149 3168 3123 3136 3130 3085 
L 3155 2784 
C 3162 2733 3187 2707 3238 2714 
C 3635 2778 4032 2810 4422 2810 
C 4826 2810 5210 2778 5574 2707 
C 5619 2694 5651 2720 5658 2771 
L 5690 3078 
z
M 5830 486 
C 5830 544 5798 570 5747 550 
C 5350 442 4941 378 4570 378 
C 4013 378 3354 525 3219 1152 
C 3206 1203 3174 1222 3130 1210 
L 2842 1126 
C 2797 1114 2771 1082 2784 1037 
C 2918 166 3795 -83 4550 -83 
C 4954 -83 5389 -26 5779 70 
C 5824 77 5843 109 5843 154 
L 5830 486 
z
" transform="scale(0.015625)"/>
       </defs>
       <use xlink:href="#LINESeedJP_OTF-Regular-305f"/>
      </g>
     </g>
    </g>
    <g id="xtick_7">
     <g id="line2d_7">
      <g>
       <use xlink:href="#m4b93be4df4" x="224.308115" y="320.4" style="stroke: #000000; stroke-width: 0.8"/>
      </g>
     </g>
     <g id="text_7">
      <!-- し -->
      <g transform="translate(226.872958 337.4) rotate(-90) scale(0.1 -0.1)">
       <defs>
        <path id="LINESeedJP_OTF-Regular-3057" d="M 4666 403 
C 5075 813 5280 1306 5402 1901 
C 5414 1952 5395 1984 5363 2003 
L 5043 2202 
C 4998 2234 4960 2214 4947 2157 
C 4826 1523 4646 1069 4269 723 
C 3923 397 3482 237 3059 237 
C 2381 237 1766 659 1741 1523 
C 1715 2323 1760 3571 1830 4890 
C 1830 4941 1805 4973 1754 4973 
L 1389 4986 
C 1338 4986 1312 4960 1306 4909 
C 1254 3558 1210 2202 1235 1421 
C 1280 262 2138 -250 3034 -250 
C 3635 -250 4256 -19 4666 403 
z
" transform="scale(0.015625)"/>
       </defs>
       <use xlink:href="#LINESeedJP_OTF-Regular-3057"/>
      </g>
     </g>
    </g>
    <g id="xtick_8">
     <g id="line2d_8">
      <g>
       <use xlink:href="#m4b93be4df4" x="241.330689" y="320.4" style="stroke: #000000; stroke-width: 0.8"/>
      </g>
     </g>
     <g id="text_8">
      <!-- な -->
      <g transform="translate(243.895533 337.4) rotate(-90) scale(0.1 -0.1)">
       <defs>
        <path id="LINESeedJP_OTF-Regular-306a" d="M 621 3795 
C 621 3750 653 3718 698 3718 
L 1952 3718 
C 1638 2739 1171 1843 563 890 
C 538 838 550 800 602 787 
L 954 678 
C 992 666 1030 678 1050 717 
C 1709 1805 2131 2694 2445 3718 
L 3546 3718 
C 3597 3718 3622 3750 3622 3795 
L 3622 4096 
C 3622 4147 3597 4173 3546 4173 
L 2566 4173 
C 2643 4467 2720 4774 2784 5101 
C 2797 5152 2771 5184 2720 5190 
L 2368 5216 
C 2323 5222 2291 5197 2285 5152 
C 2227 4813 2150 4486 2067 4173 
L 698 4173 
C 653 4173 621 4147 621 4096 
L 621 3795 
z
M 6010 3642 
C 6042 3686 6035 3725 5990 3750 
C 5453 4064 4794 4205 4134 4282 
C 4090 4288 4058 4269 4045 4224 
L 3968 3949 
C 3955 3898 3974 3866 4026 3859 
C 4691 3770 5254 3622 5696 3322 
C 5741 3296 5779 3302 5805 3347 
L 6010 3642 
z
M 5792 326 
C 5824 365 5824 403 5786 435 
C 5446 742 4973 1062 4474 1293 
C 4461 1901 4435 2515 4461 3040 
C 4461 3091 4435 3117 4384 3117 
L 4070 3117 
C 4019 3117 3994 3091 3987 3046 
C 3974 2579 3987 2029 4000 1485 
C 3725 1574 3443 1626 3181 1626 
C 2880 1626 2605 1562 2374 1395 
C 1901 1056 1843 461 2189 70 
C 2413 -198 2835 -307 3174 -307 
C 3424 -307 3674 -256 3885 -154 
C 4288 32 4442 371 4474 806 
C 4858 582 5210 301 5440 45 
C 5472 6 5510 6 5542 45 
L 5792 326 
z
M 4013 1030 
C 4013 992 4013 954 4013 928 
C 3981 384 3757 102 3194 102 
C 2976 102 2746 166 2592 294 
C 2342 499 2336 845 2637 1062 
C 2790 1171 2982 1222 3200 1222 
C 3450 1222 3731 1152 4013 1030 
z
" transform="scale(0.015625)"/>
       </defs>
       <use xlink:href="#LINESeedJP_OTF-Regular-306a"/>
      </g>
     </g>
    </g>
    <g id="xtick_9">
     <g id="line2d_9">
      <g>
       <use xlink:href="#m4b93be4df4" x="258.353264" y="320.4" style="stroke: #000000; stroke-width: 0.8"/>
      </g>
     </g>
     <g id="text_9">
      <!-- は -->
      <g transform="translate(260.918108 337.4) rotate(-90) scale(0.1 -0.1)">
       <defs>
        <path id="LINESeedJP_OTF-Regular-306f" d="M 2227 3411 
C 2227 3360 2253 3334 2304 3334 
L 4243 3334 
C 4250 2720 4256 2086 4262 1600 
C 4013 1677 3744 1728 3488 1728 
C 3149 1728 2835 1645 2598 1434 
C 2189 1056 2195 422 2598 70 
C 2835 -141 3149 -230 3462 -230 
C 4154 -230 4666 173 4723 890 
C 5062 672 5395 397 5645 141 
C 5683 96 5722 102 5754 147 
L 5958 429 
C 5984 467 5984 506 5952 538 
C 5632 832 5165 1171 4730 1402 
C 4723 1907 4717 2637 4710 3341 
L 5837 3341 
C 5888 3341 5914 3366 5914 3418 
L 5914 3718 
C 5914 3770 5888 3795 5837 3795 
L 4710 3795 
C 4704 4198 4704 4570 4710 4870 
C 4710 4915 4678 4947 4634 4947 
L 4294 4947 
C 4243 4947 4218 4915 4218 4864 
C 4224 4570 4230 4198 4237 3795 
L 2304 3795 
C 2253 3795 2227 3770 2227 3718 
L 2227 3411 
z
M 1363 -192 
C 1414 -192 1440 -160 1427 -109 
C 1152 1222 1254 3430 1549 4806 
C 1562 4864 1536 4890 1485 4896 
L 1120 4915 
C 1069 4915 1043 4896 1030 4845 
C 781 3430 659 1242 922 -154 
C 928 -198 960 -224 1005 -218 
L 1363 -192 
z
M 4269 1146 
C 4269 813 4224 538 3968 352 
C 3827 250 3642 198 3456 198 
C 3251 198 3040 262 2886 397 
C 2688 563 2656 909 2874 1133 
C 3008 1267 3238 1331 3482 1331 
C 3757 1331 4019 1261 4269 1146 
z
" transform="scale(0.015625)"/>
       </defs>
       <use xlink:href="#LINESeedJP_OTF-Regular-306f"/>
      </g>
     </g>
    </g>
    <g id="xtick_10">
     <g id="line2d_10">
      <g>
       <use xlink:href="#m4b93be4df4" x="275.375839" y="320.4" style="stroke: #000000; stroke-width: 0.8"/>
      </g>
     </g>
     <g id="text_10">
      <!-- に -->
      <g transform="translate(277.940683 337.4) rotate(-90) scale(0.1 -0.1)">
       <defs>
        <path id="LINESeedJP_OTF-Regular-306b" d="M 1427 -122 
C 1478 -122 1504 -90 1498 -38 
C 1229 1325 1331 3462 1619 4883 
C 1626 4934 1600 4960 1549 4966 
L 1184 4979 
C 1133 4986 1107 4960 1094 4915 
C 851 3469 710 1344 966 -83 
C 973 -128 998 -154 1050 -147 
L 1427 -122 
z
M 5498 4192 
C 5504 4243 5478 4275 5434 4282 
C 4992 4358 4525 4390 4051 4390 
C 3539 4390 3027 4352 2547 4288 
C 2496 4282 2470 4250 2477 4198 
L 2522 3872 
C 2528 3821 2554 3802 2605 3808 
C 3027 3878 3501 3917 3981 3917 
C 4461 3917 4941 3878 5370 3795 
C 5421 3782 5453 3808 5459 3859 
L 5498 4192 
z
M 5677 755 
C 5677 813 5645 832 5587 819 
C 5146 678 4672 614 4250 614 
C 3866 614 3520 666 3258 774 
C 2822 954 2758 1222 2950 1613 
C 2976 1664 2957 1702 2899 1709 
L 2598 1741 
C 2554 1741 2522 1728 2502 1690 
C 2189 1050 2374 576 3053 326 
C 3386 198 3834 141 4294 141 
C 4749 141 5216 198 5619 301 
C 5664 314 5683 339 5683 390 
L 5677 755 
z
" transform="scale(0.015625)"/>
       </defs>
       <use xlink:href="#LINESeedJP_OTF-Regular-306b"/>
      </g>
     </g>
    </g>
    <g id="xtick_11">
     <g id="line2d_11">
      <g>
       <use xlink:href="#m4b93be4df4" x="292.398414" y="320.4" style="stroke: #000000; stroke-width: 0.8"/>
      </g>
     </g>
     <g id="text_11">
      <!-- と -->
      <g transform="translate(294.963257 337.4) rotate(-90) scale(0.1 -0.1)">
       <defs>
        <path id="LINESeedJP_OTF-Regular-3068" d="M 5395 410 
C 5402 461 5370 486 5318 480 
C 4794 378 4109 301 3482 301 
C 2995 301 2541 346 2214 461 
C 1459 717 1350 1581 2362 2182 
C 3021 2586 4134 2886 5133 3021 
C 5184 3034 5210 3066 5190 3117 
L 5069 3462 
C 5056 3507 5024 3526 4979 3514 
C 4320 3411 3616 3238 3021 3021 
C 2893 3405 2822 4000 2829 4954 
C 2829 5005 2803 5037 2752 5037 
L 2368 5030 
C 2317 5030 2291 5005 2291 4954 
C 2323 3994 2362 3315 2547 2829 
C 2400 2758 2266 2682 2138 2611 
C 704 1779 858 410 2042 13 
C 2451 -122 2982 -179 3552 -179 
C 4128 -179 4742 -122 5318 -32 
C 5363 -19 5389 6 5389 51 
L 5395 410 
z
" transform="scale(0.015625)"/>
       </defs>
       <use xlink:href="#LINESeedJP_OTF-Regular-3068"/>
      </g>
     </g>
    </g>
    <g id="xtick_12">
     <g id="line2d_12">
      <g>
       <use xlink:href="#m4b93be4df4" x="309.420988" y="320.4" style="stroke: #000000; stroke-width: 0.8"/>
      </g>
     </g>
     <g id="text_12">
      <!-- っ -->
      <g transform="translate(311.985832 337.4) rotate(-90) scale(0.1 -0.1)">
       <defs>
        <path id="LINESeedJP_OTF-Regular-3063" d="M 2432 -26 
C 2445 -64 2470 -83 2515 -83 
C 3206 -109 3930 -13 4493 288 
C 5901 1024 5990 3494 3398 3341 
C 2605 3290 1862 3130 1152 2957 
C 1101 2944 1082 2912 1101 2861 
L 1210 2541 
C 1222 2496 1254 2477 1306 2496 
C 1939 2675 2656 2848 3373 2899 
C 5389 3040 5293 1242 4218 672 
C 3795 448 3142 339 2381 384 
C 2323 384 2298 352 2317 294 
L 2432 -26 
z
" transform="scale(0.015625)"/>
       </defs>
       <use xlink:href="#LINESeedJP_OTF-Regular-3063"/>
      </g>
     </g>
    </g>
    <g id="xtick_13">
     <g id="line2d_13">
      <g>
       <use xlink:href="#m4b93be4df4" x="326.443563" y="320.4" style="stroke: #000000; stroke-width: 0.8"/>
      </g>
     </g>
     <g id="text_13">
      <!-- か -->
      <g transform="translate(329.008407 337.4) rotate(-90) scale(0.1 -0.1)">
       <defs>
        <path id="LINESeedJP_OTF-Regular-304b" d="M 922 -147 
C 966 -160 998 -147 1018 -109 
C 1606 1024 2029 2202 2330 3309 
C 2630 3322 2893 3322 3085 3315 
C 3514 3296 3661 3142 3699 2714 
C 3744 2170 3725 1370 3578 934 
C 3424 493 3136 320 2720 320 
C 2515 320 2278 365 2016 435 
C 1952 448 1920 422 1933 358 
L 2022 0 
C 2035 -45 2054 -64 2099 -77 
C 2336 -134 2554 -160 2752 -160 
C 3411 -160 3846 147 4051 781 
C 4198 1242 4237 2202 4173 2829 
C 4115 3405 3891 3731 3226 3757 
C 3021 3770 2752 3770 2445 3763 
C 2541 4186 2624 4595 2694 4986 
C 2707 5037 2682 5062 2630 5069 
L 2298 5107 
C 2253 5114 2221 5088 2214 5043 
C 2144 4621 2054 4192 1946 3757 
C 1491 3744 992 3718 538 3693 
C 486 3686 461 3661 461 3610 
L 480 3283 
C 486 3232 512 3206 563 3206 
C 998 3251 1434 3277 1830 3296 
C 1549 2285 1146 1216 550 64 
C 525 19 538 -19 589 -38 
L 922 -147 
z
M 5843 1990 
C 5888 2010 5907 2042 5894 2086 
C 5728 2810 5421 3514 4755 4237 
C 4730 4269 4691 4282 4653 4262 
L 4358 4147 
C 4307 4128 4301 4090 4339 4045 
C 4941 3392 5280 2650 5434 1914 
C 5440 1862 5478 1843 5523 1862 
L 5843 1990 
z
" transform="scale(0.015625)"/>
       </defs>
       <use xlink:href="#LINESeedJP_OTF-Regular-304b"/>
      </g>
     </g>
    </g>
    <g id="xtick_14">
     <g id="line2d_14">
      <g>
       <use xlink:href="#m4b93be4df4" x="343.466138" y="320.4" style="stroke: #000000; stroke-width: 0.8"/>
      </g>
     </g>
     <g id="text_14">
      <!-- で -->
      <g transform="translate(346.030982 337.4) rotate(-90) scale(0.1 -0.1)">
       <defs>
        <path id="LINESeedJP_OTF-Regular-3067" d="M 4909 352 
C 4915 403 4890 435 4838 435 
C 1830 512 1971 2778 4058 3834 
C 4525 4070 4992 4154 5555 4128 
C 5606 4128 5632 4154 5632 4205 
L 5632 4538 
C 5632 4589 5606 4614 5562 4614 
C 4211 4595 1952 4582 653 4589 
C 602 4589 576 4557 576 4512 
L 582 4166 
C 582 4115 608 4090 659 4090 
C 1510 4109 2822 4128 3853 4154 
C 3699 4102 3558 4038 3418 3955 
C 1376 2752 1357 58 4749 -70 
C 4800 -77 4832 -51 4838 -6 
L 4909 352 
z
M 5888 2650 
C 5933 2669 5946 2701 5926 2752 
C 5811 3053 5581 3430 5363 3674 
C 5338 3706 5306 3712 5261 3693 
L 5107 3622 
C 5056 3603 5043 3565 5082 3520 
C 5293 3270 5498 2906 5613 2618 
C 5626 2566 5664 2554 5709 2573 
L 5888 2650 
z
M 5197 2387 
C 5242 2413 5254 2445 5235 2490 
C 5126 2784 4902 3181 4704 3437 
C 4678 3475 4640 3482 4602 3462 
L 4435 3392 
C 4384 3373 4378 3334 4410 3290 
C 4621 3014 4806 2643 4915 2349 
C 4934 2304 4966 2291 5011 2310 
L 5197 2387 
z
" transform="scale(0.015625)"/>
       </defs>
       <use xlink:href="#LINESeedJP_OTF-Regular-3067"/>
      </g>
     </g>
    </g>
    <g id="xtick_15">
     <g id="line2d_15">
      <g>
       <use xlink:href="#m4b93be4df4" x="360.488713" y="320.4" style="stroke: #000000; stroke-width: 0.8"/>
      </g>
     </g>
     <g id="text_15">
      <!-- も -->
      <g transform="translate(363.053556 337.4) rotate(-90) scale(0.1 -0.1)">
       <defs>
        <path id="LINESeedJP_OTF-Regular-3082" d="M 704 3616 
C 704 3565 730 3539 781 3539 
L 2003 3539 
C 1958 3155 1920 2784 1888 2413 
L 742 2413 
C 691 2413 666 2387 666 2336 
L 666 2061 
C 666 2010 691 1984 742 1984 
L 1856 1984 
C 1843 1760 1837 1542 1830 1325 
C 1824 230 2726 -288 3667 -288 
C 4051 -288 4442 -198 4774 -32 
C 5658 422 5824 1587 5312 2470 
C 5286 2502 5261 2522 5216 2522 
L 4877 2522 
C 4813 2522 4794 2483 4826 2426 
C 5280 1683 5210 717 4486 358 
C 4243 237 3955 173 3674 173 
C 2982 173 2317 550 2330 1357 
C 2330 1562 2336 1766 2349 1984 
L 4090 1984 
C 4141 1984 4166 2010 4166 2061 
L 4166 2336 
C 4166 2387 4141 2413 4090 2413 
L 2381 2413 
C 2413 2778 2451 3155 2496 3539 
L 4173 3539 
C 4224 3539 4250 3565 4250 3616 
L 4250 3891 
C 4250 3942 4224 3968 4173 3968 
L 2547 3968 
C 2598 4333 2643 4704 2694 5082 
C 2701 5133 2675 5158 2624 5165 
L 2272 5178 
C 2221 5184 2195 5158 2189 5107 
C 2150 4723 2099 4346 2054 3968 
L 781 3968 
C 730 3968 704 3942 704 3891 
L 704 3616 
z
" transform="scale(0.015625)"/>
       </defs>
       <use xlink:href="#LINESeedJP_OTF-Regular-3082"/>
      </g>
     </g>
    </g>
    <g id="xtick_16">
     <g id="line2d_16">
      <g>
       <use xlink:href="#m4b93be4df4" x="377.511287" y="320.4" style="stroke: #000000; stroke-width: 0.8"/>
      </g>
     </g>
     <g id="text_16">
      <!-- う -->
      <g transform="translate(380.076131 337.4) rotate(-90) scale(0.1 -0.1)">
       <defs>
        <path id="LINESeedJP_OTF-Regular-3046" d="M 4774 4653 
C 4781 4698 4762 4730 4717 4742 
C 3891 4947 2771 5075 1850 5120 
C 1805 5126 1779 5101 1766 5056 
L 1696 4749 
C 1683 4698 1702 4666 1760 4659 
C 2643 4634 3699 4531 4608 4275 
C 4653 4262 4691 4282 4698 4333 
L 4774 4653 
z
M 1894 -282 
C 1914 -326 1946 -339 1990 -339 
C 2829 -250 3622 -19 4179 326 
C 5626 1210 5786 3526 3610 3635 
C 2829 3680 1907 3533 928 3277 
C 877 3264 858 3232 877 3181 
L 973 2835 
C 986 2790 1018 2771 1069 2784 
C 2010 3078 2950 3219 3603 3174 
C 5197 3078 4941 1376 3949 749 
C 3360 390 2579 211 1786 147 
C 1728 141 1709 102 1734 51 
L 1894 -282 
z
" transform="scale(0.015625)"/>
       </defs>
       <use xlink:href="#LINESeedJP_OTF-Regular-3046"/>
      </g>
     </g>
    </g>
    <g id="xtick_17">
     <g id="line2d_17">
      <g>
       <use xlink:href="#m4b93be4df4" x="394.533862" y="320.4" style="stroke: #000000; stroke-width: 0.8"/>
      </g>
     </g>
     <g id="text_17">
      <!-- ま -->
      <g transform="translate(397.098706 337.4) rotate(-90) scale(0.1 -0.1)">
       <defs>
        <path id="LINESeedJP_OTF-Regular-307e" d="M 851 4128 
C 851 4077 883 4051 928 4051 
L 3245 4051 
C 3245 3731 3251 3398 3251 3072 
L 1050 3072 
C 1005 3072 973 3046 973 2995 
L 973 2714 
C 973 2662 1005 2637 1050 2637 
L 3258 2637 
C 3258 2259 3264 1926 3264 1651 
C 2938 1747 2650 1786 2394 1786 
C 2029 1786 1734 1702 1510 1568 
C 998 1274 851 698 1152 243 
C 1382 -128 1869 -301 2342 -301 
C 2650 -301 2950 -230 3174 -90 
C 3590 166 3718 518 3750 986 
C 4243 730 4710 390 5158 -38 
C 5190 -77 5229 -70 5267 -32 
L 5498 243 
C 5530 282 5530 320 5491 352 
C 4947 838 4346 1222 3750 1478 
C 3744 1818 3744 2214 3738 2637 
L 5453 2637 
C 5504 2637 5530 2662 5530 2714 
L 5530 3002 
C 5530 3053 5504 3078 5453 3078 
L 3738 3078 
C 3738 3405 3731 3738 3731 4051 
L 5587 4051 
C 5632 4051 5664 4077 5664 4128 
L 5664 4410 
C 5664 4461 5632 4486 5587 4486 
L 3731 4486 
C 3738 4717 3738 4934 3738 5133 
C 3738 5178 3712 5203 3661 5210 
L 3302 5210 
C 3251 5210 3226 5184 3226 5133 
C 3232 4947 3232 4717 3238 4486 
L 928 4486 
C 883 4486 851 4461 851 4410 
L 851 4128 
z
M 3283 1171 
C 3283 800 3264 493 2912 275 
C 2758 173 2547 122 2336 122 
C 2074 122 1811 205 1651 358 
C 1363 627 1427 1043 1792 1248 
C 1939 1338 2138 1389 2368 1389 
C 2669 1389 3008 1306 3283 1171 
z
" transform="scale(0.015625)"/>
       </defs>
       <use xlink:href="#LINESeedJP_OTF-Regular-307e"/>
      </g>
     </g>
    </g>
    <g id="xtick_18">
     <g id="line2d_18">
      <g>
       <use xlink:href="#m4b93be4df4" x="411.556437" y="320.4" style="stroke: #000000; stroke-width: 0.8"/>
      </g>
     </g>
     <g id="text_18">
      <!-- を -->
      <g transform="translate(414.121281 337.4) rotate(-90) scale(0.1 -0.1)">
       <defs>
        <path id="LINESeedJP_OTF-Regular-3092" d="M 813 4006 
C 813 3955 845 3930 890 3930 
C 1376 3930 1798 3930 2195 3930 
C 1850 3136 1325 2362 698 1728 
C 666 1690 666 1651 704 1619 
L 966 1414 
C 1005 1382 1043 1389 1075 1427 
C 1267 1658 1466 1888 1651 2118 
C 2042 2586 2534 2848 2950 2848 
C 3258 2848 3526 2701 3674 2394 
C 3238 2208 2733 1971 2374 1658 
C 1606 1011 1773 115 2778 -96 
C 3104 -166 3475 -198 3866 -198 
C 4307 -198 4774 -160 5235 -90 
C 5280 -83 5306 -58 5306 -13 
L 5312 314 
C 5318 365 5286 397 5229 384 
C 4730 294 4237 243 3795 243 
C 3450 243 3142 275 2886 339 
C 2323 480 2202 896 2586 1286 
C 2835 1574 3450 1856 3789 1997 
C 3827 1747 3814 1440 3744 1069 
C 3731 1018 3757 986 3808 986 
L 4134 986 
C 4179 992 4211 1011 4218 1062 
C 4294 1504 4288 1869 4237 2163 
C 4685 2323 5158 2464 5606 2598 
C 5658 2611 5677 2650 5658 2694 
L 5530 3002 
C 5517 3046 5478 3059 5434 3046 
C 5005 2893 4544 2739 4102 2566 
C 3885 3021 3482 3206 3066 3206 
C 2746 3206 2413 3098 2144 2912 
C 2323 3206 2509 3539 2701 3930 
C 3437 3930 4147 3930 5075 3936 
C 5126 3936 5152 3962 5152 4013 
L 5152 4282 
C 5152 4333 5126 4358 5075 4358 
L 2874 4358 
C 2957 4557 3034 4768 3117 5005 
C 3136 5056 3117 5088 3066 5101 
L 2714 5178 
C 2662 5184 2630 5165 2618 5120 
C 2547 4877 2458 4621 2362 4358 
L 890 4358 
C 845 4358 813 4333 813 4282 
L 813 4006 
z
" transform="scale(0.015625)"/>
       </defs>
       <use xlink:href="#LINESeedJP_OTF-Regular-3092"/>
      </g>
     </g>
    </g>
    <g id="xtick_19">
     <g id="line2d_19">
      <g>
       <use xlink:href="#m4b93be4df4" x="428.579012" y="320.4" style="stroke: #000000; stroke-width: 0.8"/>
      </g>
     </g>
     <g id="text_19">
      <!-- ら -->
      <g transform="translate(431.143855 337.4) rotate(-90) scale(0.1 -0.1)">
       <defs>
        <path id="LINESeedJP_OTF-Regular-3089" d="M 4282 4550 
C 4294 4602 4282 4634 4230 4646 
C 3590 4845 2790 4922 1978 4928 
C 1926 4928 1901 4902 1888 4858 
L 1830 4550 
C 1818 4499 1843 4467 1901 4467 
C 2733 4461 3424 4390 4064 4179 
C 4115 4166 4147 4179 4160 4224 
L 4282 4550 
z
M 1542 0 
C 1549 -45 1568 -70 1613 -77 
C 2042 -166 2496 -218 2931 -218 
C 3744 -218 4512 -32 5011 429 
C 5811 1165 5658 2259 4595 2611 
C 4365 2682 4115 2720 3853 2720 
C 3174 2720 2419 2470 1754 1946 
C 1773 2445 1856 3194 1958 3744 
C 1965 3795 1939 3827 1888 3827 
L 1549 3840 
C 1504 3840 1472 3814 1466 3770 
C 1370 3142 1280 2163 1254 1491 
C 1254 1440 1280 1414 1331 1414 
L 1658 1395 
C 1696 1395 1728 1402 1754 1434 
C 2362 1978 3104 2285 3782 2285 
C 3987 2285 4179 2259 4365 2202 
C 5062 1990 5235 1306 4666 768 
C 4269 403 3635 256 2931 256 
C 2483 256 2016 314 1562 416 
C 1504 429 1472 397 1485 339 
L 1542 0 
z
" transform="scale(0.015625)"/>
       </defs>
       <use xlink:href="#LINESeedJP_OTF-Regular-3089"/>
      </g>
     </g>
    </g>
    <g id="xtick_20">
     <g id="line2d_20">
      <g>
       <use xlink:href="#m4b93be4df4" x="445.601586" y="320.4" style="stroke: #000000; stroke-width: 0.8"/>
      </g>
     </g>
     <g id="text_20">
      <!-- ん -->
      <g transform="translate(448.16643 337.4) rotate(-90) scale(0.1 -0.1)">
       <defs>
        <path id="LINESeedJP_OTF-Regular-3093" d="M 902 -198 
C 947 -218 979 -198 998 -154 
C 1139 224 1280 602 1414 966 
C 1805 1734 2272 2118 2618 2118 
C 2861 2118 3040 1926 3085 1542 
C 3117 1158 3098 691 3277 333 
C 3469 -51 3834 -230 4218 -230 
C 4576 -230 4954 -77 5235 211 
C 5658 646 5837 1306 5914 2029 
C 5920 2074 5901 2106 5862 2118 
L 5530 2272 
C 5478 2291 5440 2272 5434 2214 
C 5395 1696 5261 947 4890 582 
C 4698 378 4454 269 4230 269 
C 4019 269 3827 365 3718 570 
C 3539 832 3571 1370 3533 1683 
C 3462 2272 3136 2547 2752 2547 
C 2451 2547 2118 2381 1843 2067 
C 2208 3027 2656 3955 3072 4896 
C 3091 4941 3078 4979 3027 4992 
L 2662 5107 
C 2618 5120 2586 5107 2566 5062 
C 2054 3789 1318 2029 506 26 
C 480 -26 499 -58 544 -77 
L 902 -198 
z
" transform="scale(0.015625)"/>
       </defs>
       <use xlink:href="#LINESeedJP_OTF-Regular-3093"/>
      </g>
     </g>
    </g>
    <g id="xtick_21">
     <g id="line2d_21">
      <g>
       <use xlink:href="#m4b93be4df4" x="462.624161" y="320.4" style="stroke: #000000; stroke-width: 0.8"/>
      </g>
     </g>
     <g id="text_21">
      <!-- れ -->
      <g transform="translate(465.189005 337.4) rotate(-90) scale(0.1 -0.1)">
       <defs>
        <path id="LINESeedJP_OTF-Regular-308c" d="M 448 3469 
C 448 3418 480 3392 525 3392 
L 1843 3418 
C 1837 3187 1830 2944 1824 2694 
C 1414 2112 774 1338 346 851 
C 314 813 314 774 346 742 
L 589 506 
C 627 467 666 467 698 506 
C 1024 902 1440 1440 1798 1952 
C 1766 1082 1741 275 1728 -237 
C 1722 -282 1754 -314 1805 -314 
L 2150 -307 
C 2202 -307 2227 -282 2227 -230 
C 2227 563 2246 1530 2278 2451 
C 2835 3085 3398 3648 3808 3859 
C 3955 3936 4090 3974 4205 3974 
C 4474 3974 4640 3763 4602 3328 
C 4544 2509 4397 1728 4403 966 
C 4410 288 4851 -38 5427 -38 
C 5638 -38 5875 6 6112 96 
C 6150 109 6170 141 6170 186 
L 6182 563 
C 6189 621 6150 646 6093 614 
C 5882 512 5664 448 5478 448 
C 5146 448 4902 640 4896 1082 
C 4896 1830 5088 2874 5101 3501 
C 5120 4147 4742 4461 4269 4461 
C 4051 4461 3808 4390 3578 4256 
C 3200 4032 2758 3610 2304 3136 
C 2336 3904 2368 4602 2394 5094 
C 2394 5146 2368 5171 2317 5171 
L 1971 5171 
C 1920 5178 1894 5146 1894 5101 
C 1888 4768 1875 4346 1862 3872 
L 525 3846 
C 480 3846 448 3821 448 3770 
L 448 3469 
z
" transform="scale(0.015625)"/>
       </defs>
       <use xlink:href="#LINESeedJP_OTF-Regular-308c"/>
      </g>
     </g>
    </g>
    <g id="xtick_22">
     <g id="line2d_22">
      <g>
       <use xlink:href="#m4b93be4df4" x="479.646736" y="320.4" style="stroke: #000000; stroke-width: 0.8"/>
      </g>
     </g>
     <g id="text_22">
      <!-- る -->
      <g transform="translate(482.21158 337.4) rotate(-90) scale(0.1 -0.1)">
       <defs>
        <path id="LINESeedJP_OTF-Regular-308b" d="M 877 1459 
C 902 1421 941 1414 986 1446 
C 1248 1658 1453 1811 1613 1939 
C 2944 2822 4410 2637 4928 2150 
C 5408 1696 5357 947 4646 512 
C 4358 346 4019 224 3680 173 
C 3731 1562 2592 1933 1958 1459 
C 1491 1107 1491 429 2067 38 
C 2714 -403 4045 -346 4838 96 
C 5914 698 5984 1901 5222 2515 
C 4634 2989 3635 3066 2714 2765 
C 3386 3219 4416 3930 4928 4282 
C 4966 4307 4979 4333 4979 4371 
L 4973 4640 
C 4973 4691 4947 4717 4896 4717 
L 1600 4717 
C 1555 4717 1523 4691 1523 4640 
L 1530 4320 
C 1530 4275 1555 4243 1600 4250 
C 2214 4256 3565 4269 4141 4282 
C 3443 3795 1683 2547 672 1856 
C 634 1824 627 1786 659 1747 
L 877 1459 
z
M 3245 147 
C 2918 147 2554 205 2285 403 
C 2003 614 1978 998 2246 1190 
C 2643 1472 3309 1056 3245 147 
z
" transform="scale(0.015625)"/>
       </defs>
       <use xlink:href="#LINESeedJP_OTF-Regular-308b"/>
      </g>
     </g>
    </g>
    <g id="xtick_23">
     <g id="line2d_23">
      <g>
       <use xlink:href="#m4b93be4df4" x="496.669311" y="320.4" style="stroke: #000000; stroke-width: 0.8"/>
      </g>
     </g>
     <g id="text_23">
      <!-- が -->
      <g transform="translate(499.234154 337.4) rotate(-90) scale(0.1 -0.1)">
       <defs>
        <path id="LINESeedJP_OTF-Regular-304c" d="M 6317 4237 
C 6368 4262 6381 4294 6355 4339 
C 6189 4627 5933 4966 5709 5190 
C 5677 5222 5645 5229 5600 5210 
L 5434 5133 
C 5382 5114 5376 5069 5414 5030 
C 5651 4787 5882 4454 6029 4186 
C 6048 4141 6086 4134 6131 4154 
L 6317 4237 
z
M 922 -147 
C 966 -160 998 -147 1018 -109 
C 1606 1024 2029 2202 2330 3309 
C 2630 3322 2893 3322 3085 3315 
C 3514 3296 3661 3142 3699 2714 
C 3744 2170 3725 1370 3578 934 
C 3424 493 3136 320 2720 320 
C 2515 320 2278 365 2016 435 
C 1952 448 1920 422 1933 358 
L 2022 0 
C 2035 -45 2054 -64 2099 -77 
C 2336 -134 2554 -160 2752 -160 
C 3411 -160 3846 147 4051 781 
C 4198 1242 4237 2202 4173 2829 
C 4115 3405 3891 3731 3226 3757 
C 3021 3770 2752 3770 2445 3763 
C 2541 4186 2624 4595 2694 4986 
C 2707 5037 2682 5062 2630 5069 
L 2298 5107 
C 2253 5114 2221 5088 2214 5043 
C 2144 4621 2054 4192 1946 3757 
C 1491 3744 992 3718 538 3693 
C 486 3686 461 3661 461 3610 
L 480 3283 
C 486 3232 512 3206 563 3206 
C 998 3251 1434 3277 1830 3296 
C 1549 2285 1146 1216 550 64 
C 525 19 538 -19 589 -38 
L 922 -147 
z
M 5645 3930 
C 5690 3949 5702 3987 5683 4032 
C 5542 4314 5293 4659 5056 4909 
C 5024 4941 4992 4947 4954 4928 
L 4781 4858 
C 4730 4832 4717 4794 4755 4749 
C 4992 4493 5210 4147 5344 3878 
C 5363 3834 5402 3821 5446 3840 
L 5645 3930 
z
M 5843 1990 
C 5888 2010 5907 2042 5894 2086 
C 5728 2810 5421 3514 4755 4237 
C 4730 4269 4691 4282 4653 4262 
L 4358 4147 
C 4307 4128 4301 4090 4339 4045 
C 4941 3392 5280 2650 5434 1914 
C 5440 1862 5478 1843 5523 1862 
L 5843 1990 
z
" transform="scale(0.015625)"/>
       </defs>
       <use xlink:href="#LINESeedJP_OTF-Regular-304c"/>
      </g>
     </g>
    </g>
    <g id="xtick_24">
     <g id="line2d_24">
      <g>
       <use xlink:href="#m4b93be4df4" x="513.691885" y="320.4" style="stroke: #000000; stroke-width: 0.8"/>
      </g>
     </g>
     <g id="text_24">
      <!-- あ -->
      <g transform="translate(516.256729 337.4) rotate(-90) scale(0.1 -0.1)">
       <defs>
        <path id="LINESeedJP_OTF-Regular-3042" d="M 755 4070 
C 755 4019 787 3994 832 3994 
L 2016 3994 
C 2010 3686 2010 3386 2022 3091 
C 902 2566 352 1370 755 531 
C 941 134 1267 -64 1626 -64 
C 1824 -64 2029 -6 2227 109 
C 3136 621 3770 1901 4154 2835 
C 5779 2432 5542 275 3392 128 
C 3334 128 3309 90 3334 38 
L 3475 -275 
C 3494 -314 3520 -333 3565 -326 
C 6176 -83 6317 2688 4384 3232 
C 4096 3315 3757 3360 3411 3360 
C 3085 3360 2765 3322 2470 3238 
C 2470 3488 2470 3738 2483 3994 
L 5517 3994 
C 5568 3994 5594 4019 5594 4070 
L 5594 4365 
C 5594 4410 5568 4442 5517 4442 
L 2502 4442 
C 2515 4653 2528 4864 2547 5082 
C 2547 5133 2522 5158 2470 5158 
L 2144 5171 
C 2093 5171 2067 5146 2061 5094 
C 2048 4877 2042 4659 2029 4442 
L 832 4442 
C 787 4442 755 4410 755 4365 
L 755 4070 
z
M 2790 1197 
C 2573 1702 2509 2253 2483 2797 
C 2739 2886 3027 2925 3322 2925 
C 3443 2925 3571 2918 3693 2906 
C 3462 2298 3155 1683 2790 1197 
z
M 2445 826 
C 2272 653 2061 486 1850 422 
C 1786 397 1722 390 1664 390 
C 1498 390 1331 467 1222 640 
C 832 1242 1254 2176 2048 2618 
C 2099 1965 2214 1357 2445 826 
z
" transform="scale(0.015625)"/>
       </defs>
       <use xlink:href="#LINESeedJP_OTF-Regular-3042"/>
      </g>
     </g>
    </g>
    <g id="xtick_25">
     <g id="line2d_25">
      <g>
       <use xlink:href="#m4b93be4df4" x="530.71446" y="320.4" style="stroke: #000000; stroke-width: 0.8"/>
      </g>
     </g>
     <g id="text_25">
      <!-- そ -->
      <g transform="translate(533.279304 337.4) rotate(-90) scale(0.1 -0.1)">
       <defs>
        <path id="LINESeedJP_OTF-Regular-305d" d="M 5075 173 
C 5082 230 5056 256 4998 256 
C 2214 211 2221 1869 3872 2400 
C 4454 2598 5222 2611 5830 2618 
C 5882 2618 5907 2643 5901 2694 
L 5888 3002 
C 5882 3053 5856 3078 5805 3072 
C 4666 3034 3526 2918 2387 2842 
C 3238 3296 4211 4019 4896 4454 
C 4934 4474 4947 4499 4947 4544 
L 4941 4806 
C 4941 4858 4915 4883 4864 4883 
C 3789 4858 2611 4832 1606 4858 
C 1555 4864 1530 4832 1530 4781 
L 1530 4474 
C 1530 4422 1555 4397 1606 4397 
C 2451 4384 3347 4410 4115 4442 
C 3411 3942 2304 3142 1376 2739 
C 1133 2714 883 2688 627 2669 
C 582 2662 557 2637 557 2586 
L 576 2266 
C 582 2214 608 2189 659 2195 
C 1760 2336 2733 2451 3456 2515 
C 1562 1914 1837 -282 4922 -224 
C 4973 -224 4998 -205 5011 -160 
L 5075 173 
z
" transform="scale(0.015625)"/>
       </defs>
       <use xlink:href="#LINESeedJP_OTF-Regular-305d"/>
      </g>
     </g>
    </g>
    <g id="xtick_26">
     <g id="line2d_26">
      <g>
       <use xlink:href="#m4b93be4df4" x="547.737035" y="320.4" style="stroke: #000000; stroke-width: 0.8"/>
      </g>
     </g>
     <g id="text_26">
      <!-- だ -->
      <g transform="translate(550.301879 337.4) rotate(-90) scale(0.1 -0.1)">
       <defs>
        <path id="LINESeedJP_OTF-Regular-3060" d="M 5862 4275 
C 5907 4294 5920 4333 5894 4378 
C 5728 4659 5459 5005 5235 5229 
C 5203 5261 5165 5261 5126 5242 
L 4966 5165 
C 4915 5139 4909 5101 4947 5062 
C 5197 4819 5434 4480 5581 4218 
C 5606 4179 5638 4166 5683 4186 
L 5862 4275 
z
M 710 3904 
C 710 3853 742 3827 787 3827 
C 1190 3827 1568 3827 1939 3834 
C 1683 2643 1267 1331 762 45 
C 742 -6 755 -45 806 -58 
L 1171 -147 
C 1216 -160 1248 -141 1267 -96 
C 1747 1229 2150 2573 2419 3834 
C 2880 3834 3334 3834 3827 3834 
C 3878 3834 3904 3859 3904 3910 
L 3904 4198 
C 3904 4250 3878 4275 3827 4275 
C 3366 4275 2931 4275 2496 4275 
C 2554 4538 2598 4800 2637 5056 
C 2643 5107 2618 5139 2566 5139 
L 2234 5158 
C 2182 5158 2157 5139 2150 5088 
C 2118 4826 2074 4557 2022 4275 
C 1626 4275 1222 4275 787 4275 
C 742 4275 710 4250 710 4198 
L 710 3904 
z
M 5190 3968 
C 5235 3994 5248 4026 5222 4070 
C 5082 4365 4826 4704 4582 4947 
C 4550 4979 4518 4986 4480 4966 
L 4314 4890 
C 4262 4864 4256 4826 4294 4781 
C 4525 4538 4749 4205 4902 3917 
C 4922 3872 4960 3859 5005 3878 
L 5190 3968 
z
M 5690 3078 
C 5696 3123 5677 3155 5626 3162 
C 5274 3226 4877 3258 4454 3258 
C 4045 3258 3622 3226 3194 3174 
C 3149 3168 3123 3136 3130 3085 
L 3155 2784 
C 3162 2733 3187 2707 3238 2714 
C 3635 2778 4032 2810 4422 2810 
C 4826 2810 5210 2778 5574 2707 
C 5619 2694 5651 2720 5658 2771 
L 5690 3078 
z
M 5830 486 
C 5830 544 5798 570 5747 550 
C 5350 442 4941 378 4570 378 
C 4013 378 3354 525 3219 1152 
C 3206 1203 3174 1222 3130 1210 
L 2842 1126 
C 2797 1114 2771 1082 2784 1037 
C 2918 166 3795 -83 4550 -83 
C 4954 -83 5389 -26 5779 70 
C 5824 77 5843 109 5843 154 
L 5830 486 
z
" transform="scale(0.015625)"/>
       </defs>
       <use xlink:href="#LINESeedJP_OTF-Regular-3060"/>
      </g>
     </g>
    </g>
    <g id="xtick_27">
     <g id="line2d_27">
      <g>
       <use xlink:href="#m4b93be4df4" x="564.75961" y="320.4" style="stroke: #000000; stroke-width: 0.8"/>
      </g>
     </g>
     <g id="text_27">
      <!-- り -->
      <g transform="translate(567.324453 337.4) rotate(-90) scale(0.1 -0.1)">
       <defs>
        <path id="LINESeedJP_OTF-Regular-308a" d="M 2061 -243 
C 2080 -288 2112 -301 2157 -301 
C 4192 -160 5062 954 5216 2182 
C 5434 3994 4608 4883 3680 4883 
C 2765 4883 1939 4019 1792 3149 
C 1843 3725 1920 4288 2029 4928 
C 2042 4986 2016 5011 1965 5018 
L 1613 5030 
C 1568 5030 1536 5005 1536 4960 
C 1389 3834 1254 2707 1363 1555 
C 1370 1510 1395 1485 1440 1485 
L 1766 1478 
C 1818 1478 1843 1510 1843 1562 
C 1754 2598 2106 3488 2675 4006 
C 2976 4288 3302 4422 3610 4422 
C 4320 4422 4902 3686 4710 2240 
C 4531 909 3520 243 1965 186 
C 1907 179 1888 147 1907 90 
L 2061 -243 
z
" transform="scale(0.015625)"/>
       </defs>
       <use xlink:href="#LINESeedJP_OTF-Regular-308a"/>
      </g>
     </g>
    </g>
    <g id="xtick_28">
     <g id="line2d_28">
      <g>
       <use xlink:href="#m4b93be4df4" x="581.782184" y="320.4" style="stroke: #000000; stroke-width: 0.8"/>
      </g>
     </g>
     <g id="text_28">
      <!-- く -->
      <g transform="translate(584.347028 337.4) rotate(-90) scale(0.1 -0.1)">
       <defs>
        <path id="LINESeedJP_OTF-Regular-304f" d="M 5011 64 
C 5050 102 5050 141 5011 173 
C 4096 973 2874 1754 1984 2246 
C 1715 2394 1728 2547 1952 2694 
C 2758 3226 3904 3936 4819 4666 
C 4864 4698 4864 4736 4826 4774 
L 4525 5030 
C 4486 5062 4454 5062 4416 5030 
C 3501 4250 2342 3546 1542 2995 
C 1120 2707 1088 2266 1600 1926 
C 2534 1344 3706 627 4595 -205 
C 4634 -243 4666 -243 4704 -211 
L 5011 64 
z
" transform="scale(0.015625)"/>
       </defs>
       <use xlink:href="#LINESeedJP_OTF-Regular-304f"/>
      </g>
     </g>
    </g>
    <g id="xtick_29">
     <g id="line2d_29">
      <g>
       <use xlink:href="#m4b93be4df4" x="598.804759" y="320.4" style="stroke: #000000; stroke-width: 0.8"/>
      </g>
     </g>
     <g id="text_29">
      <!-- こ -->
      <g transform="translate(601.369603 337.4) rotate(-90) scale(0.1 -0.1)">
       <defs>
        <path id="LINESeedJP_OTF-Regular-3053" d="M 5005 4173 
C 4998 4275 4979 4442 4973 4538 
C 4973 4570 4941 4582 4890 4576 
C 4384 4518 3782 4486 3181 4486 
C 2560 4486 1946 4518 1421 4582 
C 1370 4589 1344 4563 1338 4512 
C 1331 4416 1325 4269 1318 4173 
C 1312 4128 1338 4096 1389 4090 
C 1952 4032 2611 3994 3277 3994 
C 3840 3994 4410 4019 4934 4090 
C 4986 4096 5005 4128 5005 4173 
z
M 2067 77 
C 2451 -32 2931 -83 3450 -83 
C 4070 -83 4736 -6 5338 147 
C 5395 160 5421 186 5421 230 
L 5427 614 
C 5427 672 5395 698 5344 685 
C 4749 512 4019 410 3360 410 
C 2931 410 2528 454 2221 550 
C 1670 717 1440 1107 1773 1664 
C 1798 1715 1786 1754 1728 1760 
L 1382 1830 
C 1338 1843 1306 1824 1286 1786 
C 845 1011 1146 333 2067 77 
z
" transform="scale(0.015625)"/>
       </defs>
       <use xlink:href="#LINESeedJP_OTF-Regular-3053"/>
      </g>
     </g>
    </g>
    <g id="xtick_30">
     <g id="line2d_30">
      <g>
       <use xlink:href="#m4b93be4df4" x="615.827334" y="320.4" style="stroke: #000000; stroke-width: 0.8"/>
      </g>
     </g>
     <g id="text_30">
      <!-- す -->
      <g transform="translate(618.392177 337.4) rotate(-90) scale(0.1 -0.1)">
       <defs>
        <path id="LINESeedJP_OTF-Regular-3059" d="M 531 3981 
C 531 3930 557 3904 608 3904 
L 3411 3904 
C 3411 3597 3418 3302 3418 3034 
C 3386 3059 3354 3078 3315 3098 
C 3174 3174 2982 3226 2784 3226 
C 2515 3226 2227 3142 2003 2938 
C 1587 2566 1555 1862 1926 1446 
C 2125 1229 2432 1126 2733 1126 
C 3130 1126 3469 1293 3584 1683 
C 3533 704 2477 307 1645 218 
C 1587 211 1562 173 1594 122 
L 1773 -211 
C 1792 -250 1824 -262 1869 -256 
C 3162 -70 3923 698 4038 1600 
C 4083 1984 4013 2317 3898 2554 
C 3891 3008 3891 3456 3891 3904 
C 4544 3904 5184 3904 5798 3904 
C 5850 3904 5875 3930 5875 3981 
L 5875 4288 
C 5875 4339 5850 4365 5798 4365 
L 3904 4365 
C 3891 4608 3891 4838 3891 5062 
C 3891 5107 3866 5139 3814 5139 
L 3462 5139 
C 3411 5139 3386 5107 3386 5062 
C 3386 4838 3392 4602 3398 4365 
C 2458 4365 1504 4365 608 4365 
C 557 4365 531 4339 531 4288 
L 531 3981 
z
M 3450 2387 
C 3456 2157 3437 1933 3283 1747 
C 3168 1613 2982 1542 2797 1542 
C 2598 1542 2406 1613 2291 1760 
C 2093 1997 2106 2374 2310 2605 
C 2445 2758 2637 2822 2816 2822 
C 3085 2822 3373 2656 3450 2387 
z
" transform="scale(0.015625)"/>
       </defs>
       <use xlink:href="#LINESeedJP_OTF-Regular-3059"/>
      </g>
     </g>
    </g>
    <g id="text_31">
     <!-- Words -->
     <g transform="translate(352.259375 349.079687) scale(0.1 -0.1)">
      <defs>
       <path id="LINESeedJP_OTF-Regular-57" d="M 2374 -160 
C 2413 -160 2445 -141 2458 -96 
L 3693 3795 
L 4934 -96 
C 4947 -141 4973 -160 5011 -160 
L 5408 -160 
C 5446 -160 5478 -141 5485 -109 
L 7213 4723 
C 7226 4774 7200 4806 7149 4806 
L 6675 4806 
C 6637 4806 6611 4794 6598 4749 
L 5235 755 
L 3962 4742 
C 3949 4794 3923 4806 3885 4806 
L 3514 4806 
C 3475 4806 3443 4794 3437 4742 
L 2163 755 
L 806 4749 
C 794 4794 762 4806 723 4806 
L 237 4806 
C 192 4806 160 4774 173 4723 
L 1901 -109 
C 1907 -141 1939 -160 1984 -160 
L 2374 -160 
z
" transform="scale(0.015625)"/>
       <path id="LINESeedJP_OTF-Regular-6f" d="M 2016 -230 
C 3066 -230 3757 525 3757 1549 
C 3757 2579 3066 3322 2016 3322 
C 966 3322 282 2579 282 1549 
C 282 525 966 -230 2016 -230 
z
M 2016 275 
C 1318 275 838 787 838 1549 
C 838 2310 1318 2822 2016 2822 
C 2714 2822 3194 2310 3194 1549 
C 3194 787 2714 275 2016 275 
z
" transform="scale(0.015625)"/>
       <path id="LINESeedJP_OTF-Regular-72" d="M 998 -160 
C 1043 -160 1069 -134 1069 -83 
L 1069 1696 
C 1069 2310 1587 2778 2150 2778 
C 2253 2778 2323 2765 2381 2758 
C 2426 2752 2458 2771 2458 2822 
L 2458 3213 
C 2458 3258 2445 3283 2394 3290 
C 2349 3302 2291 3302 2214 3302 
C 1734 3302 1299 3046 1050 2598 
L 1024 3187 
C 1024 3238 992 3258 947 3258 
L 602 3258 
C 557 3258 525 3232 525 3187 
L 525 -83 
C 525 -134 557 -160 602 -160 
L 998 -160 
z
" transform="scale(0.015625)"/>
       <path id="LINESeedJP_OTF-Regular-64" d="M 1914 -230 
C 2458 -230 2931 38 3174 461 
L 3194 -83 
C 3194 -141 3226 -160 3270 -160 
L 3616 -160 
C 3661 -160 3686 -134 3686 -83 
L 3686 4845 
C 3686 4890 3661 4915 3616 4915 
L 3219 4915 
C 3174 4915 3149 4890 3149 4845 
L 3149 2682 
C 2893 3078 2438 3322 1914 3322 
C 922 3322 282 2586 282 1549 
C 282 512 922 -230 1914 -230 
z
M 2016 275 
C 1318 275 838 787 838 1549 
C 838 2310 1318 2822 2016 2822 
C 2714 2822 3194 2310 3194 1549 
C 3194 787 2714 275 2016 275 
z
" transform="scale(0.015625)"/>
       <path id="LINESeedJP_OTF-Regular-73" d="M 1670 -230 
C 2387 -230 2893 160 2893 749 
C 2893 1261 2605 1587 1850 1786 
L 1658 1837 
C 1146 1971 954 2112 954 2374 
C 954 2669 1210 2835 1581 2835 
C 1946 2835 2208 2669 2355 2342 
C 2374 2304 2400 2285 2451 2304 
L 2803 2413 
C 2842 2426 2861 2458 2842 2496 
C 2637 3059 2176 3322 1587 3322 
C 870 3322 397 2925 397 2374 
C 397 1882 710 1530 1459 1318 
L 1664 1267 
C 2131 1152 2336 998 2336 736 
C 2336 416 2042 269 1651 269 
C 1203 269 909 422 730 819 
C 717 864 691 877 640 864 
L 288 768 
C 250 755 230 717 243 678 
C 461 70 954 -230 1670 -230 
z
" transform="scale(0.015625)"/>
      </defs>
      <use xlink:href="#LINESeedJP_OTF-Regular-57"/>
      <use xlink:href="#LINESeedJP_OTF-Regular-6f" x="115.399994"/>
      <use xlink:href="#LINESeedJP_OTF-Regular-72" x="178.399979"/>
      <use xlink:href="#LINESeedJP_OTF-Regular-64" x="218.899963"/>
      <use xlink:href="#LINESeedJP_OTF-Regular-73" x="284.799957"/>
     </g>
    </g>
   </g>
   <g id="matplotlib.axis_2">
    <g id="ytick_1">
     <g id="line2d_31">
      <defs>
       <path id="m052653d99e" d="M 0 0 
L -3.5 0 
" style="stroke: #000000; stroke-width: 0.8"/>
      </defs>
      <g>
       <use xlink:href="#m052653d99e" x="90" y="320.4" style="stroke: #000000; stroke-width: 0.8"/>
      </g>
     </g>
     <g id="text_32">
      <!-- 0 -->
      <g transform="translate(75.75 324.239844) scale(0.1 -0.1)">
       <defs>
        <path id="LINESeedJP_OTF-Regular-30" d="M 2214 -128 
C 3366 -128 4051 832 4051 2451 
C 4051 4070 3366 5030 2214 5030 
C 1056 5030 371 4070 371 2451 
C 371 832 1056 -128 2214 -128 
z
M 2214 429 
C 1421 429 960 1120 960 2451 
C 960 3782 1421 4474 2214 4474 
C 3002 4474 3462 3782 3462 2451 
C 3462 1120 3002 429 2214 429 
z
" transform="scale(0.015625)"/>
       </defs>
       <use xlink:href="#LINESeedJP_OTF-Regular-30"/>
      </g>
     </g>
    </g>
    <g id="ytick_2">
     <g id="line2d_32">
      <g>
       <use xlink:href="#m052653d99e" x="90" y="283.148695" style="stroke: #000000; stroke-width: 0.8"/>
      </g>
     </g>
     <g id="text_33">
      <!-- 1000 -->
      <g transform="translate(56.590625 286.988539) scale(0.1 -0.1)">
       <defs>
        <path id="LINESeedJP_OTF-Regular-31" d="M 1933 -32 
C 1978 -32 2003 -6 2003 45 
L 2003 4864 
C 2003 4909 1978 4934 1933 4934 
L 1638 4934 
C 1606 4934 1574 4928 1549 4902 
L 320 3866 
C 282 3840 275 3802 301 3770 
L 384 3622 
C 410 3571 442 3565 480 3584 
L 1440 4122 
L 1440 45 
C 1440 -6 1466 -32 1510 -32 
L 1933 -32 
z
" transform="scale(0.015625)"/>
       </defs>
       <use xlink:href="#LINESeedJP_OTF-Regular-31"/>
       <use xlink:href="#LINESeedJP_OTF-Regular-30" x="46.599991"/>
       <use xlink:href="#LINESeedJP_OTF-Regular-30" x="119.099976"/>
       <use xlink:href="#LINESeedJP_OTF-Regular-30" x="191.59996"/>
      </g>
     </g>
    </g>
    <g id="ytick_3">
     <g id="line2d_33">
      <g>
       <use xlink:href="#m052653d99e" x="90" y="245.89739" style="stroke: #000000; stroke-width: 0.8"/>
      </g>
     </g>
     <g id="text_34">
      <!-- 2000 -->
      <g transform="translate(54.579687 249.737233) scale(0.1 -0.1)">
       <defs>
        <path id="LINESeedJP_OTF-Regular-32" d="M 3616 -32 
C 3661 -32 3686 -6 3686 45 
L 3686 435 
C 3686 474 3661 506 3616 506 
L 1344 506 
L 2048 1248 
C 3302 2566 3488 3072 3488 3712 
C 3488 4499 2880 5030 1990 5030 
C 1184 5030 595 4589 352 3834 
C 339 3782 358 3750 403 3744 
L 806 3635 
C 845 3622 877 3642 896 3680 
C 1069 4198 1446 4474 1971 4474 
C 2522 4474 2912 4166 2912 3661 
C 2912 3155 2720 2765 1645 1587 
L 442 250 
C 422 224 403 198 403 166 
L 403 45 
C 403 -6 435 -32 480 -32 
L 3616 -32 
z
" transform="scale(0.015625)"/>
       </defs>
       <use xlink:href="#LINESeedJP_OTF-Regular-32"/>
       <use xlink:href="#LINESeedJP_OTF-Regular-30" x="66.699997"/>
       <use xlink:href="#LINESeedJP_OTF-Regular-30" x="139.199982"/>
       <use xlink:href="#LINESeedJP_OTF-Regular-30" x="211.699966"/>
      </g>
     </g>
    </g>
    <g id="ytick_4">
     <g id="line2d_34">
      <g>
       <use xlink:href="#m052653d99e" x="90" y="208.646084" style="stroke: #000000; stroke-width: 0.8"/>
      </g>
     </g>
     <g id="text_35">
      <!-- 3000 -->
      <g transform="translate(54.559375 212.485928) scale(0.1 -0.1)">
       <defs>
        <path id="LINESeedJP_OTF-Regular-33" d="M 2016 -128 
C 3014 -128 3706 512 3706 1344 
C 3706 1965 3347 2406 2746 2579 
C 3290 2778 3597 3206 3597 3725 
C 3597 4474 2925 5030 2010 5030 
C 1203 5030 582 4557 378 3834 
C 365 3782 378 3757 429 3744 
L 826 3635 
C 864 3622 902 3642 915 3680 
C 1062 4154 1453 4474 2003 4474 
C 2586 4474 3008 4122 3008 3635 
C 3008 3174 2611 2816 2035 2816 
L 1754 2816 
C 1709 2816 1683 2790 1683 2746 
L 1683 2394 
C 1683 2349 1709 2323 1754 2323 
L 2022 2323 
C 2694 2323 3123 1965 3123 1402 
C 3123 845 2675 429 2016 429 
C 1440 429 1024 749 838 1357 
C 826 1395 794 1408 749 1402 
L 358 1293 
C 320 1286 301 1261 314 1210 
C 518 352 1197 -128 2016 -128 
z
" transform="scale(0.015625)"/>
       </defs>
       <use xlink:href="#LINESeedJP_OTF-Regular-33"/>
       <use xlink:href="#LINESeedJP_OTF-Regular-30" x="66.899994"/>
       <use xlink:href="#LINESeedJP_OTF-Regular-30" x="139.399979"/>
       <use xlink:href="#LINESeedJP_OTF-Regular-30" x="211.899963"/>
      </g>
     </g>
    </g>
    <g id="ytick_5">
     <g id="line2d_35">
      <g>
       <use xlink:href="#m052653d99e" x="90" y="171.394779" style="stroke: #000000; stroke-width: 0.8"/>
      </g>
     </g>
     <g id="text_36">
      <!-- 4000 -->
      <g transform="translate(54.1 175.234623) scale(0.1 -0.1)">
       <defs>
        <path id="LINESeedJP_OTF-Regular-34" d="M 3322 -32 
C 3366 -32 3398 -6 3398 45 
L 3398 1056 
L 4077 1056 
C 4128 1056 4154 1082 4154 1133 
L 4154 1523 
C 4154 1562 4128 1594 4077 1594 
L 3398 1594 
L 3398 4864 
C 3398 4909 3366 4934 3322 4934 
L 3021 4934 
C 2982 4934 2957 4922 2938 4890 
L 282 1357 
C 262 1325 256 1299 256 1267 
L 256 1133 
C 256 1082 282 1056 333 1056 
L 2829 1056 
L 2829 45 
C 2829 -6 2854 -32 2899 -32 
L 3322 -32 
z
M 1069 1594 
L 2829 3968 
L 2829 1594 
L 1069 1594 
z
" transform="scale(0.015625)"/>
       </defs>
       <use xlink:href="#LINESeedJP_OTF-Regular-34"/>
       <use xlink:href="#LINESeedJP_OTF-Regular-30" x="71.499985"/>
       <use xlink:href="#LINESeedJP_OTF-Regular-30" x="143.999969"/>
       <use xlink:href="#LINESeedJP_OTF-Regular-30" x="216.499954"/>
      </g>
     </g>
    </g>
    <g id="ytick_6">
     <g id="line2d_36">
      <g>
       <use xlink:href="#m052653d99e" x="90" y="134.143474" style="stroke: #000000; stroke-width: 0.8"/>
      </g>
     </g>
     <g id="text_37">
      <!-- 5000 -->
      <g transform="translate(54.559375 137.983318) scale(0.1 -0.1)">
       <defs>
        <path id="LINESeedJP_OTF-Regular-35" d="M 2093 -128 
C 3072 -128 3757 550 3757 1536 
C 3757 2515 3130 3168 2208 3168 
C 1754 3168 1357 3021 1056 2746 
L 1216 4397 
L 3443 4397 
C 3482 4397 3514 4429 3514 4474 
L 3514 4864 
C 3514 4909 3482 4934 3443 4934 
L 845 4934 
C 806 4934 781 4915 768 4864 
L 544 2323 
C 538 2278 557 2253 589 2234 
L 800 2138 
C 838 2118 864 2125 902 2150 
C 1242 2496 1632 2669 2067 2669 
C 2746 2669 3174 2234 3174 1542 
C 3174 851 2720 429 2067 429 
C 1517 429 1069 723 877 1357 
C 864 1395 838 1414 794 1402 
L 410 1306 
C 365 1293 352 1261 365 1222 
C 582 358 1267 -128 2093 -128 
z
" transform="scale(0.015625)"/>
       </defs>
       <use xlink:href="#LINESeedJP_OTF-Regular-35"/>
       <use xlink:href="#LINESeedJP_OTF-Regular-30" x="66.899994"/>
       <use xlink:href="#LINESeedJP_OTF-Regular-30" x="139.399979"/>
       <use xlink:href="#LINESeedJP_OTF-Regular-30" x="211.899963"/>
      </g>
     </g>
    </g>
    <g id="ytick_7">
     <g id="line2d_37">
      <g>
       <use xlink:href="#m052653d99e" x="90" y="96.892169" style="stroke: #000000; stroke-width: 0.8"/>
      </g>
     </g>
     <g id="text_38">
      <!-- 6000 -->
      <g transform="translate(54.65 100.732013) scale(0.1 -0.1)">
       <defs>
        <path id="LINESeedJP_OTF-Regular-36" d="M 2003 -128 
C 3021 -128 3706 544 3706 1536 
C 3706 2509 3066 3174 2131 3174 
C 1850 3174 1594 3104 1382 2976 
L 2720 4845 
C 2752 4890 2733 4934 2682 4934 
L 2182 4934 
C 2150 4934 2118 4922 2099 4890 
L 1139 3539 
C 512 2650 307 2157 307 1555 
C 307 563 986 -128 2003 -128 
z
M 2003 429 
C 1325 429 883 870 883 1549 
C 883 2234 1325 2669 2003 2669 
C 2675 2669 3110 2234 3110 1549 
C 3110 870 2675 429 2003 429 
z
" transform="scale(0.015625)"/>
       </defs>
       <use xlink:href="#LINESeedJP_OTF-Regular-36"/>
       <use xlink:href="#LINESeedJP_OTF-Regular-30" x="65.999985"/>
       <use xlink:href="#LINESeedJP_OTF-Regular-30" x="138.499969"/>
       <use xlink:href="#LINESeedJP_OTF-Regular-30" x="210.999954"/>
      </g>
     </g>
    </g>
    <g id="ytick_8">
     <g id="line2d_38">
      <g>
       <use xlink:href="#m052653d99e" x="90" y="59.640864" style="stroke: #000000; stroke-width: 0.8"/>
      </g>
     </g>
     <g id="text_39">
      <!-- 7000 -->
      <g transform="translate(54.959375 63.480707) scale(0.1 -0.1)">
       <defs>
        <path id="LINESeedJP_OTF-Regular-37" d="M 1517 -32 
C 1555 -32 1581 -13 1606 19 
L 3597 4640 
C 3610 4672 3616 4704 3616 4730 
L 3616 4864 
C 3616 4909 3590 4934 3546 4934 
L 346 4934 
C 301 4934 269 4909 269 4864 
L 269 4474 
C 269 4429 301 4397 346 4397 
L 2886 4397 
L 979 51 
C 960 0 979 -32 1037 -32 
L 1517 -32 
z
" transform="scale(0.015625)"/>
       </defs>
       <use xlink:href="#LINESeedJP_OTF-Regular-37"/>
       <use xlink:href="#LINESeedJP_OTF-Regular-30" x="62.899994"/>
       <use xlink:href="#LINESeedJP_OTF-Regular-30" x="135.399979"/>
       <use xlink:href="#LINESeedJP_OTF-Regular-30" x="207.899963"/>
      </g>
     </g>
    </g>
    <g id="text_40">
     <!-- Values -->
     <g transform="translate(47.55 198.635156) rotate(-90) scale(0.1 -0.1)">
      <defs>
       <path id="LINESeedJP_OTF-Regular-56" d="M 2611 -160 
C 2643 -160 2682 -147 2694 -109 
L 4640 4723 
C 4659 4774 4634 4806 4589 4806 
L 4115 4806 
C 4077 4806 4045 4794 4032 4749 
L 2419 563 
L 806 4749 
C 794 4794 755 4806 717 4806 
L 237 4806 
C 186 4806 160 4774 186 4723 
L 2125 -109 
C 2144 -147 2170 -160 2214 -160 
L 2611 -160 
z
" transform="scale(0.015625)"/>
       <path id="LINESeedJP_OTF-Regular-61" d="M 1914 -230 
C 2458 -230 2931 38 3174 461 
L 3194 -83 
C 3194 -141 3226 -160 3270 -160 
L 3616 -160 
C 3661 -160 3686 -134 3686 -83 
L 3686 3187 
C 3686 3232 3661 3258 3616 3258 
L 3270 3258 
C 3226 3258 3194 3238 3194 3187 
L 3174 2643 
C 2931 3059 2458 3322 1914 3322 
C 922 3322 282 2586 282 1549 
C 282 512 922 -230 1914 -230 
z
M 2016 275 
C 1318 275 838 787 838 1549 
C 838 2310 1318 2822 2016 2822 
C 2714 2822 3194 2310 3194 1549 
C 3194 787 2714 275 2016 275 
z
" transform="scale(0.015625)"/>
       <path id="LINESeedJP_OTF-Regular-6c" d="M 998 -160 
C 1043 -160 1069 -134 1069 -83 
L 1069 4845 
C 1069 4890 1043 4915 998 4915 
L 602 4915 
C 557 4915 525 4890 525 4845 
L 525 -83 
C 525 -134 557 -160 602 -160 
L 998 -160 
z
" transform="scale(0.015625)"/>
       <path id="LINESeedJP_OTF-Regular-75" d="M 1728 -230 
C 2189 -230 2694 0 2944 461 
L 2963 -83 
C 2963 -141 2995 -160 3040 -160 
L 3392 -160 
C 3430 -160 3456 -134 3456 -83 
L 3456 3187 
C 3456 3232 3430 3258 3392 3258 
L 2989 3258 
C 2944 3258 2918 3232 2918 3187 
L 2918 1453 
C 2918 640 2349 275 1869 275 
C 1306 275 1050 608 1050 1267 
L 1050 3187 
C 1050 3232 1024 3258 973 3258 
L 576 3258 
C 538 3258 506 3232 506 3187 
L 506 1037 
C 506 250 960 -230 1728 -230 
z
" transform="scale(0.015625)"/>
       <path id="LINESeedJP_OTF-Regular-65" d="M 1952 -230 
C 2611 -230 3130 64 3424 666 
C 3443 704 3424 742 3379 755 
L 3046 877 
C 3002 890 2970 883 2950 838 
C 2758 467 2451 269 1952 269 
C 1325 269 915 691 845 1376 
L 3430 1376 
C 3475 1376 3507 1402 3507 1453 
C 3520 2560 2963 3322 1952 3322 
C 934 3322 282 2579 282 1549 
C 282 525 928 -230 1952 -230 
z
M 1952 2835 
C 2522 2835 2880 2426 2931 1805 
L 851 1805 
C 941 2445 1370 2835 1952 2835 
z
" transform="scale(0.015625)"/>
      </defs>
      <use xlink:href="#LINESeedJP_OTF-Regular-56"/>
      <use xlink:href="#LINESeedJP_OTF-Regular-61" x="75.299988"/>
      <use xlink:href="#LINESeedJP_OTF-Regular-6c" x="141.199982"/>
      <use xlink:href="#LINESeedJP_OTF-Regular-75" x="166.099976"/>
      <use xlink:href="#LINESeedJP_OTF-Regular-65" x="228.399963"/>
      <use xlink:href="#LINESeedJP_OTF-Regular-73" x="286.699951"/>
     </g>
    </g>
   </g>
   <g id="patch_33">
    <path d="M 90 320.4 
L 90 43.2 
" style="fill: none; stroke: #000000; stroke-width: 0.8; stroke-linejoin: miter; stroke-linecap: square"/>
   </g>
   <g id="patch_34">
    <path d="M 648 320.4 
L 648 43.2 
" style="fill: none; stroke: #000000; stroke-width: 0.8; stroke-linejoin: miter; stroke-linecap: square"/>
   </g>
   <g id="patch_35">
    <path d="M 90 320.4 
L 648 320.4 
" style="fill: none; stroke: #000000; stroke-width: 0.8; stroke-linejoin: miter; stroke-linecap: square"/>
   </g>
   <g id="patch_36">
    <path d="M 90 43.2 
L 648 43.2 
" style="fill: none; stroke: #000000; stroke-width: 0.8; stroke-linejoin: miter; stroke-linecap: square"/>
   </g>
   <g id="text_41">
    <!-- DazaiOsamu's Top 30 words (text_raw_dataset) -->
    <g transform="translate(244.061719 37.2) scale(0.1 -0.1)">
     <defs>
      <path id="LINESeedJP_OTF-Regular-44" d="M 2163 -160 
C 3853 -160 4666 813 4666 2323 
C 4666 3840 3853 4806 2163 4806 
L 685 4806 
C 634 4806 608 4781 608 4736 
L 608 -83 
C 608 -134 634 -160 685 -160 
L 2163 -160 
z
M 2099 4269 
C 3430 4269 4077 3546 4077 2323 
C 4077 1107 3430 378 2099 378 
L 1178 378 
L 1178 4269 
L 2099 4269 
z
" transform="scale(0.015625)"/>
      <path id="LINESeedJP_OTF-Regular-7a" d="M 2976 -160 
C 3021 -160 3053 -134 3053 -83 
L 3053 262 
C 3053 301 3021 326 2976 326 
L 1178 326 
L 2989 2995 
C 3008 3021 3014 3046 3014 3078 
L 3014 3187 
C 3014 3232 2989 3258 2950 3258 
L 480 3258 
C 442 3258 410 3232 410 3187 
L 410 2842 
C 410 2797 442 2771 480 2771 
L 2202 2771 
L 384 109 
C 365 83 358 58 358 26 
L 358 -83 
C 358 -128 384 -160 429 -160 
L 2976 -160 
z
" transform="scale(0.015625)"/>
      <path id="LINESeedJP_OTF-Regular-69" d="M 800 4026 
C 998 4026 1158 4166 1158 4371 
C 1158 4576 998 4717 800 4717 
C 595 4717 442 4576 442 4371 
C 442 4166 595 4026 800 4026 
z
M 998 -160 
C 1043 -160 1069 -134 1069 -83 
L 1069 3187 
C 1069 3232 1043 3258 998 3258 
L 602 3258 
C 557 3258 525 3232 525 3187 
L 525 -83 
C 525 -134 557 -160 602 -160 
L 998 -160 
z
" transform="scale(0.015625)"/>
      <path id="LINESeedJP_OTF-Regular-4f" d="M 2803 -256 
C 4218 -256 5210 755 5210 2323 
C 5210 3898 4218 4902 2803 4902 
C 1395 4902 390 3898 390 2323 
C 390 755 1395 -256 2803 -256 
z
M 2803 301 
C 1651 301 979 1158 979 2323 
C 979 3488 1651 4346 2803 4346 
C 3955 4346 4627 3494 4627 2323 
C 4627 1158 3955 301 2803 301 
z
" transform="scale(0.015625)"/>
      <path id="LINESeedJP_OTF-Regular-6d" d="M 998 -160 
C 1043 -160 1069 -134 1069 -83 
L 1069 1645 
C 1069 2458 1606 2822 2086 2822 
C 2605 2822 2867 2490 2867 1837 
L 2867 -83 
C 2867 -134 2893 -160 2944 -160 
L 3341 -160 
C 3379 -160 3411 -134 3411 -83 
L 3411 1645 
C 3411 2458 3942 2822 4422 2822 
C 4947 2822 5210 2490 5210 1837 
L 5210 -83 
C 5210 -134 5235 -160 5286 -160 
L 5683 -160 
C 5722 -160 5747 -134 5747 -83 
L 5747 2061 
C 5747 2848 5299 3322 4563 3322 
C 4064 3322 3565 3072 3328 2566 
C 3174 3046 2778 3322 2227 3322 
C 1760 3322 1286 3085 1050 2624 
L 1024 3187 
C 1024 3238 992 3258 947 3258 
L 602 3258 
C 557 3258 525 3232 525 3187 
L 525 -83 
C 525 -134 557 -160 602 -160 
L 998 -160 
z
" transform="scale(0.015625)"/>
      <path id="LINESeedJP_OTF-Regular-27" d="M 922 3258 
C 960 3258 986 3283 986 3315 
L 1050 4742 
C 1050 4787 1030 4806 986 4806 
L 582 4806 
C 544 4806 518 4787 518 4742 
L 582 3315 
C 582 3283 608 3258 646 3258 
L 922 3258 
z
" transform="scale(0.015625)"/>
      <path id="LINESeedJP_OTF-Regular-20" transform="scale(0.015625)"/>
      <path id="LINESeedJP_OTF-Regular-54" d="M 2413 -160 
C 2464 -160 2490 -134 2490 -83 
L 2490 4269 
L 4122 4269 
C 4160 4269 4186 4301 4186 4346 
L 4186 4736 
C 4186 4781 4160 4806 4122 4806 
L 288 4806 
C 243 4806 224 4781 224 4736 
L 224 4346 
C 224 4301 243 4269 288 4269 
L 1920 4269 
L 1920 -83 
C 1920 -134 1946 -160 1997 -160 
L 2413 -160 
z
" transform="scale(0.015625)"/>
      <path id="LINESeedJP_OTF-Regular-70" d="M 998 -1632 
C 1043 -1632 1069 -1606 1069 -1562 
L 1069 429 
C 1318 26 1779 -230 2298 -230 
C 3302 -230 3936 512 3936 1549 
C 3936 2586 3302 3322 2298 3322 
C 1766 3322 1299 3059 1050 2643 
L 1024 3187 
C 1024 3238 992 3258 947 3258 
L 602 3258 
C 557 3258 525 3232 525 3187 
L 525 -1562 
C 525 -1606 557 -1632 602 -1632 
L 998 -1632 
z
M 2202 275 
C 1504 275 1024 787 1024 1549 
C 1024 2310 1504 2822 2202 2822 
C 2893 2822 3373 2310 3373 1549 
C 3373 787 2893 275 2202 275 
z
" transform="scale(0.015625)"/>
      <path id="LINESeedJP_OTF-Regular-77" d="M 1683 -160 
C 1728 -160 1754 -141 1766 -109 
L 2746 2342 
L 3699 -109 
C 3712 -147 3744 -160 3782 -160 
L 4032 -160 
C 4064 -160 4102 -147 4115 -109 
L 5293 3174 
C 5312 3238 5286 3258 5229 3258 
L 4787 3258 
C 4755 3258 4723 3245 4710 3200 
L 3898 806 
L 2963 3200 
C 2944 3245 2918 3258 2880 3258 
L 2630 3258 
C 2592 3258 2566 3245 2547 3200 
L 1587 781 
L 800 3200 
C 787 3245 755 3258 717 3258 
L 237 3258 
C 186 3258 160 3219 173 3174 
L 1350 -109 
C 1370 -147 1402 -160 1434 -160 
L 1683 -160 
z
" transform="scale(0.015625)"/>
      <path id="LINESeedJP_OTF-Regular-28" d="M 2330 -1293 
C 2374 -1306 2400 -1274 2400 -1229 
L 2400 -730 
C 2400 -678 2374 -653 2336 -653 
C 1389 -582 947 230 947 2003 
C 947 3776 1389 4595 2336 4666 
C 2374 4672 2400 4698 2400 4736 
L 2400 5114 
C 2400 5158 2374 5184 2330 5184 
C 1018 5101 365 4038 365 2003 
C 365 -32 1018 -1222 2330 -1293 
z
" transform="scale(0.015625)"/>
      <path id="LINESeedJP_OTF-Regular-74" d="M 1709 -230 
C 2074 -230 2406 -58 2624 378 
C 2650 429 2637 467 2598 486 
L 2291 621 
C 2253 640 2221 627 2202 582 
C 2099 365 1946 275 1760 275 
C 1421 275 1267 499 1267 1011 
L 1267 2771 
L 2214 2771 
C 2253 2771 2278 2797 2278 2835 
L 2278 3187 
C 2278 3232 2253 3258 2214 3258 
L 1267 3258 
L 1267 4307 
C 1267 4346 1235 4371 1190 4371 
L 794 4371 
C 749 4371 723 4346 723 4307 
L 723 3258 
L 122 3258 
C 83 3258 51 3232 51 3187 
L 51 2835 
C 51 2797 83 2771 122 2771 
L 723 2771 
L 723 1024 
C 723 160 1094 -230 1709 -230 
z
" transform="scale(0.015625)"/>
      <path id="LINESeedJP_OTF-Regular-78" d="M 691 -160 
C 723 -160 749 -147 781 -115 
L 1741 1235 
L 2701 -115 
C 2720 -141 2752 -160 2784 -160 
L 3258 -160 
C 3315 -160 3334 -122 3302 -70 
L 2086 1606 
L 3213 3168 
C 3245 3219 3226 3258 3168 3258 
L 2726 3258 
C 2688 3258 2656 3245 2637 3213 
L 1766 1997 
L 896 3213 
C 870 3245 845 3258 806 3258 
L 339 3258 
C 275 3258 256 3213 288 3168 
L 1421 1613 
L 205 -70 
C 160 -122 192 -160 243 -160 
L 691 -160 
z
" transform="scale(0.015625)"/>
      <path id="LINESeedJP_OTF-Regular-5f" d="M 3443 -1165 
C 3475 -1165 3514 -1133 3514 -1094 
L 3514 -723 
C 3514 -685 3475 -646 3443 -646 
L 371 -646 
C 346 -646 307 -685 307 -723 
L 307 -1094 
C 307 -1133 346 -1165 371 -1165 
L 3443 -1165 
z
" transform="scale(0.015625)"/>
      <path id="LINESeedJP_OTF-Regular-29" d="M 211 -1293 
C 1523 -1222 2170 -32 2170 2003 
C 2170 4038 1523 5101 211 5184 
C 160 5184 134 5158 134 5114 
L 134 4736 
C 134 4698 160 4672 205 4666 
C 1152 4595 1587 3776 1587 2003 
C 1587 230 1152 -582 205 -653 
C 160 -653 134 -678 134 -730 
L 134 -1229 
C 134 -1274 160 -1306 211 -1293 
z
" transform="scale(0.015625)"/>
     </defs>
     <use xlink:href="#LINESeedJP_OTF-Regular-44"/>
     <use xlink:href="#LINESeedJP_OTF-Regular-61" x="79.099991"/>
     <use xlink:href="#LINESeedJP_OTF-Regular-7a" x="144.999985"/>
     <use xlink:href="#LINESeedJP_OTF-Regular-61" x="198.299973"/>
     <use xlink:href="#LINESeedJP_OTF-Regular-69" x="264.199966"/>
     <use xlink:href="#LINESeedJP_OTF-Regular-4f" x="289.09996"/>
     <use xlink:href="#LINESeedJP_OTF-Regular-73" x="376.599945"/>
     <use xlink:href="#LINESeedJP_OTF-Regular-61" x="426.59993"/>
     <use xlink:href="#LINESeedJP_OTF-Regular-6d" x="492.499924"/>
     <use xlink:href="#LINESeedJP_OTF-Regular-75" x="590.299911"/>
     <use xlink:href="#LINESeedJP_OTF-Regular-27" x="652.599899"/>
     <use xlink:href="#LINESeedJP_OTF-Regular-73" x="681.799896"/>
     <use xlink:href="#LINESeedJP_OTF-Regular-20" x="731.799881"/>
     <use xlink:href="#LINESeedJP_OTF-Regular-54" x="766.299866"/>
     <use xlink:href="#LINESeedJP_OTF-Regular-6f" x="835.19986"/>
     <use xlink:href="#LINESeedJP_OTF-Regular-70" x="898.199844"/>
     <use xlink:href="#LINESeedJP_OTF-Regular-20" x="964.099838"/>
     <use xlink:href="#LINESeedJP_OTF-Regular-33" x="998.599823"/>
     <use xlink:href="#LINESeedJP_OTF-Regular-30" x="1065.499817"/>
     <use xlink:href="#LINESeedJP_OTF-Regular-20" x="1137.999802"/>
     <use xlink:href="#LINESeedJP_OTF-Regular-77" x="1172.499786"/>
     <use xlink:href="#LINESeedJP_OTF-Regular-6f" x="1257.89978"/>
     <use xlink:href="#LINESeedJP_OTF-Regular-72" x="1320.899765"/>
     <use xlink:href="#LINESeedJP_OTF-Regular-64" x="1361.39975"/>
     <use xlink:href="#LINESeedJP_OTF-Regular-73" x="1427.299744"/>
     <use xlink:href="#LINESeedJP_OTF-Regular-20" x="1477.299728"/>
     <use xlink:href="#LINESeedJP_OTF-Regular-28" x="1511.799713"/>
     <use xlink:href="#LINESeedJP_OTF-Regular-74" x="1554.49971"/>
     <use xlink:href="#LINESeedJP_OTF-Regular-65" x="1596.499695"/>
     <use xlink:href="#LINESeedJP_OTF-Regular-78" x="1654.799683"/>
     <use xlink:href="#LINESeedJP_OTF-Regular-74" x="1709.59967"/>
     <use xlink:href="#LINESeedJP_OTF-Regular-5f" x="1751.599655"/>
     <use xlink:href="#LINESeedJP_OTF-Regular-72" x="1812.899643"/>
     <use xlink:href="#LINESeedJP_OTF-Regular-61" x="1853.399628"/>
     <use xlink:href="#LINESeedJP_OTF-Regular-77" x="1919.299622"/>
     <use xlink:href="#LINESeedJP_OTF-Regular-5f" x="2004.699615"/>
     <use xlink:href="#LINESeedJP_OTF-Regular-64" x="2065.999603"/>
     <use xlink:href="#LINESeedJP_OTF-Regular-61" x="2131.899597"/>
     <use xlink:href="#LINESeedJP_OTF-Regular-74" x="2197.799591"/>
     <use xlink:href="#LINESeedJP_OTF-Regular-61" x="2239.799576"/>
     <use xlink:href="#LINESeedJP_OTF-Regular-73" x="2305.69957"/>
     <use xlink:href="#LINESeedJP_OTF-Regular-65" x="2355.699554"/>
     <use xlink:href="#LINESeedJP_OTF-Regular-74" x="2413.999542"/>
     <use xlink:href="#LINESeedJP_OTF-Regular-29" x="2455.999527"/>
    </g>
   </g>
  </g>
 </g>
 <defs>
  <clipPath id="pe0184a8044">
   <rect x="90" y="43.2" width="558" height="277.2"/>
  </clipPath>
 </defs>
</svg>
